<svg width="25" height="25" viewBox="0 0 25 25" fill="none" xmlns="http://www.w3.org/2000/svg">
<path d="M21.5436 3.40698H4.29358C3.87874 3.40698 3.54358 3.74214 3.54358 4.15698V21.407C3.54358 21.8218 3.87874 22.157 4.29358 22.157H21.5436C21.9584 22.157 22.2936 21.8218 22.2936 21.407V4.15698C22.2936 3.74214 21.9584 3.40698 21.5436 3.40698ZM19.378 8.87964H17.8803C16.7061 8.87964 16.4787 9.43745 16.4787 10.2578V12.0648H19.2819L18.9162 14.8937H16.4787V22.157H13.5561V14.896H11.1115V12.0648H13.5561V9.97886C13.5561 7.55776 15.035 6.23823 17.1959 6.23823C18.2319 6.23823 19.1201 6.31558 19.3803 6.35073V8.87964H19.378Z" fill="#EDEDED"/>
</svg>
