<?xml version="1.0" encoding="UTF-8"?>
<svg data-token-name="user" width="24px" height="24px" viewBox="0 0 24 24" version="1.1"
     xmlns="http://www.w3.org/2000/svg">

    <title>user</title>
    <g id="user" stroke="none" stroke-width="1" fill="none" fill-rule="evenodd">
 <path d="M12.11718,3.07293 C10.5461,3.07293 9.26797,4.35137 9.26797,5.92276 C9.26797,7.49384 10.5461,8.77197 12.11718,8.77197 C13.68857,8.77197 14.9667,7.49384 14.9667,5.92276 C14.9667,4.35137 13.68857,3.07293 12.11718,3.07293 Z M12.11718,10.67165 C9.49861,10.67165 7.36829,8.54102 7.36829,5.92276 C7.36829,3.30388 9.49861,1.17356 12.11718,1.17356 C14.73575,1.17356 16.86638,3.30388 16.86638,5.92276 C16.86638,8.54102 14.73575,10.67165 12.11718,10.67165 Z M17.84784,22.70244 C17.32301,22.70244 16.898,22.27681 16.898,21.7526 L16.898,14.69235 C16.898,14.16845 16.47175,13.74251 15.94816,13.74251 L8.25458,13.74251 C7.73099,13.74251 7.30474,14.16845 7.30474,14.69235 L7.30474,21.7526 C7.30474,22.27681 6.87973,22.70244 6.35521,22.70244 C5.83069,22.70244 5.40537,22.27681 5.40537,21.7526 L5.40537,14.69235 C5.40537,13.12096 6.68381,11.84283 8.25458,11.84283 L15.94816,11.84283 C17.51924,11.84283 18.79768,13.12096 18.79768,14.69235 L18.79768,21.7526 C18.79768,22.27681 18.37236,22.70244 17.84784,22.70244 Z" id="Fill-4" fill="#24206B"></path>
    </g>
</svg>